<svg width="192" height="40" viewBox="0 0 192 40" fill="none" xmlns="http://www.w3.org/2000/svg">
<g id="Logo">
<path id="Vector" d="M187.538 31.5984C187.538 29.3795 186.743 27.3745 185.274 25.8812C183.639 24.2254 181.517 23.4305 178.644 23.4305H170.919V39.3507H179.578C181.282 39.3507 182.564 39.0948 183.687 38.5108C186.045 37.2975 187.538 34.612 187.538 31.6014V31.5984ZM181.959 31.4117C181.959 34.2116 180.677 35.5423 177.967 35.5423H176.495V27.2089H177.801C180.556 27.2089 181.956 28.6088 181.956 31.4117H181.959ZM163.335 39.3477H168.914V23.4275H163.335V39.3477ZM157.149 39.3477H162.634L160.743 35.1449C160.439 34.4916 160.042 33.6727 159.786 33.2542C159.295 32.4143 158.922 32.065 158.151 31.6676C159.831 30.921 160.695 29.6836 160.695 27.9555C160.695 26.393 159.831 24.969 158.431 24.2223C157.754 23.8731 157.007 23.6383 156.236 23.545C155.396 23.4757 154.228 23.4275 152.759 23.4275H145.546V39.3477H151.055V32.6942H152.247C153.063 32.6942 153.485 32.8117 153.858 33.1127C154.114 33.2994 154.373 33.5794 154.58 33.9286C155.116 34.7445 155.676 35.8434 156.167 36.9874L157.145 39.3447L157.149 39.3477ZM155.399 28.0519C155.399 29.5692 154.418 30.2466 152.271 30.2466H151.058V25.9986H152.319C154.466 25.9986 155.402 26.6278 155.402 28.0519H155.399ZM137.893 39.5585C139.645 39.5585 142.282 39.2333 143.845 38.8359V30.3159H137.613V33.6998H139.597V35.5664L139.317 35.5905C138.967 35.6146 138.663 35.6146 138.383 35.6146C135.677 35.6146 133.949 34.0039 133.949 31.4599C133.949 28.9159 135.909 26.9319 138.663 26.9319C140.319 26.9319 141.861 27.3534 143.565 28.2867V24.2946C141.836 23.5961 139.901 23.2439 137.962 23.2439C132.221 23.2439 128.37 26.6519 128.37 31.7399C128.37 33.9798 129.372 36.0812 131.125 37.5293C132.853 38.9533 134.858 39.5585 137.893 39.5585ZM125.657 31.6706C127.337 30.924 128.201 29.6866 128.201 27.9585C128.201 26.396 127.337 24.972 125.937 24.2254C125.26 23.8761 124.513 23.6413 123.743 23.548C122.903 23.4787 121.735 23.4305 120.265 23.4305H113.052V39.3507H118.561V32.6973H119.751C120.566 32.6973 120.988 32.8147 121.361 33.1157C121.617 33.3024 121.876 33.5824 122.084 33.9316C122.62 34.7475 123.18 35.8464 123.67 36.9904L124.652 39.3477H130.137L128.246 35.1449C127.942 34.4916 127.545 33.6727 127.289 33.2542C126.798 32.4143 126.425 32.065 125.654 31.6676L125.657 31.6706ZM122.903 28.0519C122.903 29.5692 121.921 30.2466 119.775 30.2466H118.561V25.9986H119.823C121.969 25.9986 122.903 26.6278 122.903 28.0519ZM99.5883 39.3477H111.61V35.9156H105.098V32.9502H110.981V29.6355H105.098V26.7874H111.541V23.4275H99.5913V39.3477H99.5883ZM93.6122 39.3477L99.0043 23.4275H93.7748L92.0467 30.5687H92.0016L89.9001 23.4275H85.8629L83.8789 30.5687H83.8337L81.9912 23.4275H76.7618L82.3645 39.3477H85.7033L87.8981 31.4569H87.9462L90.2795 39.3477H93.6183H93.6122ZM77.0417 31.3906C77.0417 26.4653 73.6096 23.2439 68.3832 23.2439C63.1567 23.2439 59.7246 26.4653 59.7246 31.3906C59.7246 36.316 63.1567 39.5585 68.3832 39.5585C73.6096 39.5585 77.0417 36.3371 77.0417 31.3906ZM71.439 31.3906C71.439 33.5854 70.2949 34.892 68.3802 34.892C66.4654 34.892 65.3003 33.5854 65.3003 31.3906C65.3003 29.1959 66.4684 27.8893 68.3802 27.8893C70.2919 27.8893 71.439 29.2441 71.439 31.3906ZM58.6257 28.2837C58.6257 26.8837 57.9965 25.5771 56.8525 24.689C55.6151 23.7316 54.3537 23.4275 51.4845 23.4275H44.25V39.3477H49.6872V33.6757H51.042C52.5834 33.6757 53.6793 33.5824 54.6818 33.3506C57.1325 32.7906 58.6257 30.8758 58.6257 28.2867V28.2837ZM53.4655 28.5426C53.4655 30.1051 52.6948 30.7133 50.6656 30.7133H49.6842V26.4201H50.479C52.7671 26.4201 53.4655 26.9108 53.4655 28.5456V28.5426Z" fill="#AB1236"></path>
<path id="Vector_2" d="M62.4191 0.706341H60.8566V18.2824L45.6138 0.706341H44.2861V20.8173H45.8486V3.24129L61.1246 20.8143H62.4221V0.706341H62.4191ZM86.4229 10.7618C86.4229 4.98143 81.7353 0.441406 75.7472 0.441406C69.759 0.441406 65.1317 4.98143 65.1317 10.7618C65.1317 16.5422 69.7922 21.0823 75.7472 21.0823C81.7022 21.0823 86.4229 16.5422 86.4229 10.7618ZM84.7429 10.7618C84.7429 15.7745 80.8502 19.6372 75.8074 19.6372C70.7646 19.6372 66.8146 15.7745 66.8146 10.7618C66.8146 5.74914 70.7646 1.88651 75.8074 1.88651C80.8502 1.88651 84.7429 5.74914 84.7429 10.7618ZM89.1354 0.706341V20.8173H90.698V11.1743H93.4105C95.8281 11.1743 96.5958 11.4994 99.0133 15.3019L102.524 20.8173H104.351L99.8111 13.8598C98.8688 12.4448 98.071 11.2947 97.1287 10.7919C99.6937 9.84962 100.961 8.22689 100.961 5.89666C100.961 3.21419 99.221 0.706341 94.2987 0.706341H89.1384H89.1354ZM90.698 2.00392H93.9705C97.6555 2.00392 99.2782 3.65374 99.2782 5.92677C99.2782 8.3443 97.5682 9.87671 94.0307 9.87671H90.698V2.00392ZM118.513 0.706341H101.852V2.00392H109.4V20.8173H110.962V2.00392H118.513V0.706341ZM136.411 0.706341H134.849V9.99412H121.433V0.706341H119.871V20.8173H121.433V11.2917H134.849V20.8173H136.411V0.706341ZM150.977 0.706341H140.006V20.8173H151.212V19.5197H141.569V11.3519H150.739V10.0543H141.569V2.00392H150.974V0.706341H150.977ZM153.337 0.706341V20.8173H154.9V11.1743H157.612C160.03 11.1743 160.797 11.4994 163.215 15.3019L166.725 20.8173H168.553L164.013 13.8598C163.067 12.4448 162.273 11.2947 161.33 10.7919C163.895 9.84962 165.163 8.22689 165.163 5.89666C165.163 3.21419 163.423 0.706341 158.497 0.706341H153.337ZM154.9 2.00392H158.172C161.857 2.00392 163.48 3.65374 163.48 5.92677C163.48 8.3443 161.77 9.87671 158.232 9.87671H154.9V2.00392ZM187.246 0.706341H185.683V18.2824L170.437 0.706341H169.11V20.8173H170.672V3.24129L185.945 20.8143H187.243V0.706341H187.246Z" fill="#131313"></path>
<path id="Vector_3" d="M38.6025 15.2055L31.675 20.438L30.7146 20.447L38.6025 13.4654V11.9631L27.7461 20.447L26.7647 20.438L38.6085 9.54252L38.6055 8.47074L23.8022 20.453L22.8147 20.444L38.6085 5.30356V4.72251L19.7891 20.4982L38.6085 39.3116V18.2402L35.5918 20.45H34.6646L38.6085 17.0841L38.6025 15.2055Z" fill="#AB1236"></path>
<path id="Vector_4" d="M19.3011 19.9984L38.6053 0.703331H38.6083H0L19.3011 19.9984Z" fill="#AB1236"></path>
<path id="Vector_5" d="M189.408 37.3156H189.643L190.185 38.303H190.781L190.179 37.2764C190.492 37.2523 190.745 37.0988 190.745 36.6622C190.745 36.1264 190.386 35.9578 189.784 35.9578H188.911V38.303H189.414V37.3156H189.408ZM189.408 36.9182V36.3522H189.757C189.95 36.3522 190.209 36.3672 190.209 36.6111C190.209 36.87 190.076 36.9151 189.85 36.9151H189.408V36.9182Z" fill="#131313"></path>
<path id="Vector_6" d="M189.805 39.3146C188.619 39.3146 187.652 38.3482 187.652 37.162C187.652 35.9758 188.619 35.0094 189.805 35.0094C190.991 35.0094 191.958 35.9758 191.958 37.162C191.958 38.3482 190.991 39.3146 189.805 39.3146ZM189.805 35.3978C188.833 35.3978 188.038 36.1896 188.038 37.162C188.038 38.1345 188.83 38.9263 189.805 38.9263C190.78 38.9263 191.569 38.1345 191.569 37.162C191.569 36.1896 190.777 35.3978 189.805 35.3978Z" fill="#131313"></path>
</g>
</svg>